<svg id="visual" viewBox="0 0 900 600" width="900" height="600" xmlns="http://www.w3.org/2000/svg" xmlns:xlink="http://www.w3.org/1999/xlink" version="1.1"><rect x="0" y="0" width="900" height="600" fill="#001220"></rect><defs><linearGradient id="grad1_0" x1="33.3%" y1="0%" x2="100%" y2="100%"><stop offset="20%" stop-color="#fbae3c" stop-opacity="1"></stop><stop offset="80%" stop-color="#fbae3c" stop-opacity="1"></stop></linearGradient></defs><defs><linearGradient id="grad1_1" x1="33.3%" y1="0%" x2="100%" y2="100%"><stop offset="20%" stop-color="#fbae3c" stop-opacity="1"></stop><stop offset="80%" stop-color="#96446e" stop-opacity="1"></stop></linearGradient></defs><defs><linearGradient id="grad1_2" x1="33.3%" y1="0%" x2="100%" y2="100%"><stop offset="20%" stop-color="#001220" stop-opacity="1"></stop><stop offset="80%" stop-color="#96446e" stop-opacity="1"></stop></linearGradient></defs><defs><linearGradient id="grad2_0" x1="0%" y1="0%" x2="66.7%" y2="100%"><stop offset="20%" stop-color="#fbae3c" stop-opacity="1"></stop><stop offset="80%" stop-color="#fbae3c" stop-opacity="1"></stop></linearGradient></defs><defs><linearGradient id="grad2_1" x1="0%" y1="0%" x2="66.7%" y2="100%"><stop offset="20%" stop-color="#96446e" stop-opacity="1"></stop><stop offset="80%" stop-color="#fbae3c" stop-opacity="1"></stop></linearGradient></defs><defs><linearGradient id="grad2_2" x1="0%" y1="0%" x2="66.7%" y2="100%"><stop offset="20%" stop-color="#96446e" stop-opacity="1"></stop><stop offset="80%" stop-color="#001220" stop-opacity="1"></stop></linearGradient></defs><g transform="translate(900, 0)"><path d="M0 486.7C-50.8 466.8 -101.5 446.8 -134.4 413.7C-167.3 380.7 -182.3 334.6 -231 317.9C-279.7 301.3 -362 314.2 -393.8 286.1C-425.5 258 -406.7 188.9 -413.7 134.4C-420.8 79.9 -453.8 40 -486.7 0L0 0Z" fill="#3d3056"></path><path d="M0 324.5C-33.8 311.2 -67.7 297.8 -89.6 275.8C-111.5 253.8 -121.5 223 -154 212C-186.5 200.9 -241.4 209.5 -262.5 190.7C-283.7 172 -271.1 126 -275.8 89.6C-280.5 53.3 -302.5 26.6 -324.5 0L0 0Z" fill="#e1685e"></path><path d="M0 162.2C-16.9 155.6 -33.8 148.9 -44.8 137.9C-55.8 126.9 -60.8 111.5 -77 106C-93.2 100.4 -120.7 104.7 -131.3 95.4C-141.8 86 -135.6 63 -137.9 44.8C-140.3 26.6 -151.3 13.3 -162.2 0L0 0Z" fill="#fbae3c"></path></g><g transform="translate(0, 600)"><path d="M0 -486.7C46.8 -478.3 93.6 -469.8 149.9 -461.3C206.1 -452.7 271.8 -444 286.1 -393.8C300.4 -343.6 263.5 -251.9 286.4 -208.1C309.3 -164.2 392.2 -168.2 435.6 -141.5C479 -114.8 482.9 -57.4 486.7 0L0 0Z" fill="#3d3056"></path><path d="M0 -324.5C31.2 -318.9 62.4 -313.2 99.9 -307.5C137.4 -301.8 181.2 -296 190.7 -262.5C200.3 -229.1 175.6 -167.9 190.9 -138.7C206.2 -109.5 261.5 -112.2 290.4 -94.4C319.3 -76.5 321.9 -38.3 324.5 0L0 0Z" fill="#e1685e"></path><path d="M0 -162.2C15.6 -159.4 31.2 -156.6 50 -153.8C68.7 -150.9 90.6 -148 95.4 -131.3C100.1 -114.5 87.8 -84 95.5 -69.4C103.1 -54.7 130.7 -56.1 145.2 -47.2C159.7 -38.3 161 -19.1 162.2 0L0 0Z" fill="#fbae3c"></path></g></svg>